<svg xmlns="http://www.w3.org/2000/svg" viewBox="0 0 283.87 280.63"><defs><style>.cls-1{isolation:isolate;}.cls-2,.cls-3,.cls-4{fill:#faa41a;}.cls-3{mix-blend-mode:multiply;}.cls-4{stroke:#faa41a;stroke-linecap:round;stroke-linejoin:round;stroke-width:5px;}</style></defs><g class="cls-1"><g id="Layer_1" data-name="Layer 1"><path class="cls-2" d="M146.17,28.2l42.31,49L215,60.69,153,24.32a1.16,1.16,0,0,0-1-.08l-5.38,2.12A1.16,1.16,0,0,0,146.17,28.2Z"/><path class="cls-2" d="M146.75,26.31l-.13.05a1.16,1.16,0,0,0-.45,1.84l42.31,49L215,60.69l-7.1-4.17C196.19,67.63,173.09,58.91,146.75,26.31Z"/><path class="cls-2" d="M212.4,156.24,196.89,93.42l28.78-12.14-6.15,71.62a1.16,1.16,0,0,1-.52.87l-4.84,3.17A1.16,1.16,0,0,1,212.4,156.24Z"/><path class="cls-2" d="M214.27,156.86l-.11.08a1.16,1.16,0,0,1-1.76-.7L196.89,93.42l28.78-12.14-.7,8.2C209.13,92.63,202.89,116.53,214.27,156.86Z"/><path class="cls-2" d="M141.73,106.85c32.13-20.75,77.06-50.4,88.37-55.56S255,48,257.43,52.73s-7.66,18.86-16,22.71S154,111.5,145.94,115,132.44,113.25,141.73,106.85Z"/><path class="cls-3" d="M204.71,84.81c-34.8,15.42-59,27-67.67,27.24-1.12,3.53,3.24,5.38,8.9,2.93,8.05-3.48,87.18-35.7,95.5-39.54s18.42-18,16-22.71a4.7,4.7,0,0,0-.56-.81C252.8,61.34,227.88,74.54,204.71,84.81Z"/><path class="cls-2" d="M128.8,86.64l13.27,21.15,11.78-7.56-21.73-15a.47.47,0,0,0-.4-.06l-2.66.76A.47.47,0,0,0,128.8,86.64Z"/><path class="cls-2" d="M154.87,137,145.27,114l13-5.25-.32,26.41a.47.47,0,0,1-.18.36l-2.16,1.73A.47.47,0,0,1,154.87,137Z"/><path class="cls-2" d="M130.41,85.55l-1.35.38a.47.47,0,0,0-.26.71l13.27,21.15,11.78-7.56-2.53-1.74C145.22,104,135,98.39,130.41,85.55Z"/><path class="cls-2" d="M156.68,136.35l-1.09.88a.47.47,0,0,1-.72-.19L145.27,114l13-5.25,0,3.08C150.22,113.62,148.88,125.15,156.68,136.35Z"/><path class="cls-4" d="M137.14,264.9c-21.5-22.5-78-103.4-78.28-151.23C54.71,65.74,89,26.09,137.11,26.72V28c-47.43-.61-81.07,38.36-77,85.59,1.6,49.31,53,122.87,77,149.36,4.84-6.11,49.2-54.78,72.5-98.85l1.11.59C185.34,212.34,138.43,263.28,137.14,264.9Z"/></g></g></svg>